<?xml version="1.0" encoding="iso-8859-1"?>
<!-- Generator: Adobe Illustrator 19.0.0, SVG Export Plug-In . SVG Version: 6.00 Build 0)  -->
<svg version="1.1" id="Layer_1" xmlns="http://www.w3.org/2000/svg" xmlns:xlink="http://www.w3.org/1999/xlink" x="0px" y="0px"
	 viewBox="0 0 503.467 503.467" style="enable-background:new 0 0 503.467 503.467;" xml:space="preserve">
<g transform="translate(1 1)">
	<path style="fill:#ECF4F7;" d="M88.6,464.067c0,0,11.093,18.773,30.72,34.133H37.4c-19.627,0-34.133-15.36-34.133-34.133V88.6
		H498.2v375.467c0,19.627-14.507,34.133-34.133,34.133h-72.533c23.893-30.72,38.4-69.12,38.4-110.933
		c0-98.987-80.213-179.2-179.2-179.2c-11.947,0-23.04,0.853-34.133,3.413c-82.773,16.213-145.067,88.747-145.067,175.787
		C71.533,414.573,77.507,441.027,88.6,464.067"/>
	<path style="fill:#F2EDDA;" d="M429.933,387.267c0,41.813-14.507,80.213-38.4,110.933h-4.267H119.32
		c-19.627-15.36-30.72-34.133-30.72-34.133h39.253c-13.653-22.187-22.187-48.64-22.187-76.8c0-68.267,46.933-125.44,110.933-140.8
		v-34.133v-0.853c11.093-2.56,22.187-3.413,34.133-3.413C349.72,208.067,429.933,288.28,429.933,387.267"/>
	<path style="fill:#FFE079;" d="M250.733,370.2c9.387,0,17.067,7.68,17.067,17.067s-7.68,17.067-17.067,17.067
		c-9.387,0-17.067-7.68-17.067-17.067S241.347,370.2,250.733,370.2"/>
	<path style="fill:#50DD8E;" d="M216.6,212.333v34.133c-64,15.36-110.933,72.533-110.933,140.8c0,28.16,7.68,54.613,22.187,76.8
		H88.6c-11.093-23.04-17.067-49.493-17.067-76.8C71.533,300.227,133.827,227.693,216.6,212.333L216.6,212.333z"/>
	<path style="fill:#AAB1BA;" d="M498.2,37.4v51.2H3.267V37.4c0-18.773,15.36-34.133,34.133-34.133h426.667
		C482.84,3.267,498.2,18.627,498.2,37.4"/>
	<path style="fill:#50DD8E;" d="M165.4,37.4c5.12,0,8.533,4.267,8.533,8.533s-3.413,8.533-8.533,8.533
		c-4.267,0-8.533-4.267-8.533-8.533S161.133,37.4,165.4,37.4L165.4,37.4z"/>
	<path style="fill:#FFE079;" d="M114.2,37.4c4.267,0,8.533,4.267,8.533,8.533s-4.267,8.533-8.533,8.533
		c-4.267,0-8.533-4.267-8.533-8.533S109.933,37.4,114.2,37.4"/>
	<path style="fill:#FF7474;" d="M63,37.4c4.267,0,8.533,4.267,8.533,8.533S67.267,54.467,63,54.467s-8.533-4.267-8.533-8.533
		S58.733,37.4,63,37.4"/>
</g>
<path style="fill:#51565F;" d="M465.067,503.467h-34.133c-2.56,0-4.267-1.707-4.267-4.267c0-2.56,1.707-4.267,4.267-4.267h34.133
	c17.067,0,29.867-12.8,29.867-29.867V38.4c0-16.213-13.653-29.867-29.867-29.867H38.4C22.187,8.533,8.533,22.187,8.533,38.4v46.933
	h456.533c2.56,0,4.267,1.707,4.267,4.267c0,2.56-1.707,4.267-4.267,4.267H4.267C1.707,93.867,0,92.16,0,89.6V38.4
	C0,17.067,17.067,0,38.4,0h426.667c21.333,0,38.4,17.067,38.4,38.4v426.667C503.467,487.253,487.253,503.467,465.067,503.467z
	 M392.533,503.467H38.4c-22.187,0-38.4-16.213-38.4-38.4V123.733c0-2.56,1.707-4.267,4.267-4.267s4.267,1.707,4.267,4.267v341.333
	c0,17.067,12.8,29.867,29.867,29.867h351.573c23.893-30.72,36.693-67.413,36.693-106.667c0-96.427-78.507-174.933-174.933-174.933
	c-96.427,0-174.933,78.507-174.933,174.933c0,26.453,5.973,51.2,17.067,75.093c0.853,2.56,0,4.267-1.707,5.973
	c-1.707,0.853-4.267,0-5.973-1.707c-11.947-24.747-17.92-51.2-17.92-78.507c0-101.547,81.92-183.467,183.467-183.467
	S435.2,287.573,435.2,389.12c0,41.813-13.653,81.067-39.253,113.493C395.093,502.613,393.387,503.467,392.533,503.467z
	 M128.853,469.333c-1.707,0-2.56-0.853-3.413-1.707c-14.507-23.893-23.04-51.2-23.04-79.36c0-69.12,46.933-128.853,114.347-145.067
	c2.56-0.853,4.267,0.853,5.12,3.413c0.853,2.56-0.853,4.267-3.413,5.12c-63.147,15.36-107.52,71.68-107.52,136.533
	c0,26.453,7.68,52.053,21.333,74.24c0.853,1.707,0.853,4.267-1.707,5.973C130.56,469.333,129.707,469.333,128.853,469.333z
	 M385.707,448c-0.853,0-0.853,0-1.707,0l-15.36-6.827c-1.707-0.853-2.56-2.56-2.56-4.267c0-0.853,0-0.853,0-1.707
	c0.853-2.56,3.413-3.413,5.973-2.56l15.36,6.827c1.707,0.853,2.56,2.56,2.56,4.267c0,0.853,0,0.853,0,1.707
	C389.12,447.147,387.413,448,385.707,448z M251.733,426.667c-2.56,0-4.267-1.707-4.267-4.267v-12.8
	c-9.387-1.707-17.067-10.24-17.067-21.333s7.68-18.773,17.067-21.333V243.2c0-2.56,1.707-4.267,4.267-4.267
	c2.56,0,4.267,1.707,4.267,4.267v123.733c9.387,1.707,17.067,10.24,17.067,21.333S265.387,407.04,256,409.6v12.8
	C256,424.96,254.293,426.667,251.733,426.667z M251.733,375.467c-6.827,0-12.8,5.973-12.8,12.8s5.973,12.8,12.8,12.8
	c6.827,0,12.8-5.973,12.8-12.8S258.56,375.467,251.733,375.467z M396.8,392.533h-17.067c-2.56,0-4.267-1.707-4.267-4.267
	c0-2.56,1.707-4.267,4.267-4.267H396.8c2.56,0,4.267,1.707,4.267,4.267C401.067,390.827,399.36,392.533,396.8,392.533z
	 M370.347,343.893c-1.707,0-3.413-0.853-4.267-2.56c0-0.853,0-0.853,0-1.707c0-1.707,0.853-3.413,2.56-4.267l15.36-6.827
	c2.56-0.853,4.267,0,5.973,2.56c0,0.853,0,0.853,0,1.707c0,1.707-0.853,3.413-2.56,4.267l-15.36,6.827
	C371.2,343.04,370.347,343.893,370.347,343.893z M342.187,302.08c-0.853,0-2.56,0-3.413-0.853c-0.853-0.853-0.853-1.707-0.853-3.413
	s0-2.56,0.853-3.413l11.947-11.947c1.707-1.707,4.267-1.707,5.973,0c0.853,0.853,0.853,1.707,0.853,3.413s0,2.56-0.853,3.413
	l-11.947,11.947C344.747,301.227,343.04,302.08,342.187,302.08z M300.373,273.92c-0.853,0-0.853,0-1.707,0
	c-1.707-0.853-2.56-2.56-2.56-4.267c0-0.853,0-0.853,0-1.707l6.827-15.36c0.853-2.56,3.413-3.413,5.973-2.56
	c1.707,0.853,2.56,2.56,2.56,4.267c0,0.853,0,0.853,0,1.707l-6.827,15.36C303.787,273.067,302.08,273.92,300.373,273.92z
	 M448,145.067h-34.133c-2.56,0-4.267-1.707-4.267-4.267c0-2.56,1.707-4.267,4.267-4.267H448c2.56,0,4.267,1.707,4.267,4.267
	C452.267,143.36,450.56,145.067,448,145.067z M379.733,145.067H345.6c-2.56,0-4.267-1.707-4.267-4.267
	c0-2.56,1.707-4.267,4.267-4.267h34.133c2.56,0,4.267,1.707,4.267,4.267C384,143.36,382.293,145.067,379.733,145.067z
	 M311.467,145.067h-34.133c-2.56,0-4.267-1.707-4.267-4.267c0-2.56,1.707-4.267,4.267-4.267h34.133c2.56,0,4.267,1.707,4.267,4.267
	C315.733,143.36,314.027,145.067,311.467,145.067z M123.733,145.067H55.467c-2.56,0-4.267-1.707-4.267-4.267
	c0-2.56,1.707-4.267,4.267-4.267h68.267c2.56,0,4.267,1.707,4.267,4.267C128,143.36,126.293,145.067,123.733,145.067z M166.4,59.733
	c-6.827,0-12.8-5.973-12.8-12.8s5.973-12.8,12.8-12.8s12.8,5.973,12.8,12.8S173.227,59.733,166.4,59.733z M166.4,42.667
	c-2.56,0-4.267,1.707-4.267,4.267c0,2.56,1.707,4.267,4.267,4.267s4.267-1.707,4.267-4.267
	C170.667,44.373,168.96,42.667,166.4,42.667z M115.2,59.733c-6.827,0-12.8-5.973-12.8-12.8s5.973-12.8,12.8-12.8
	s12.8,5.973,12.8,12.8S122.027,59.733,115.2,59.733z M115.2,42.667c-2.56,0-4.267,1.707-4.267,4.267c0,2.56,1.707,4.267,4.267,4.267
	c2.56,0,4.267-1.707,4.267-4.267C119.467,44.373,117.76,42.667,115.2,42.667z M64,59.733c-6.827,0-12.8-5.973-12.8-12.8
	s5.973-12.8,12.8-12.8c6.827,0,12.8,5.973,12.8,12.8S70.827,59.733,64,59.733z M64,42.667c-2.56,0-4.267,1.707-4.267,4.267
	c0,2.56,1.707,4.267,4.267,4.267c2.56,0,4.267-1.707,4.267-4.267C68.267,44.373,66.56,42.667,64,42.667z"/>
<g>
</g>
<g>
</g>
<g>
</g>
<g>
</g>
<g>
</g>
<g>
</g>
<g>
</g>
<g>
</g>
<g>
</g>
<g>
</g>
<g>
</g>
<g>
</g>
<g>
</g>
<g>
</g>
<g>
</g>
</svg>
