<?xml version="1.0" encoding="iso-8859-1"?>
<!-- Generator: Adobe Illustrator 19.0.0, SVG Export Plug-In . SVG Version: 6.00 Build 0)  -->
<svg version="1.1" id="Layer_1" xmlns="http://www.w3.org/2000/svg" xmlns:xlink="http://www.w3.org/1999/xlink" x="0px" y="0px"
	 viewBox="0 0 503.467 503.467" style="enable-background:new 0 0 503.467 503.467;" xml:space="preserve">
<g transform="translate(10 1)">
	<path style="fill:#AAB1BA;" d="M267.333,186.733V216.6c0,4.267-3.413,8.533-8.533,8.533h-17.067h-17.067
		c-5.12,0-8.533-4.267-8.533-8.533v-29.867l0,0c7.68,2.56,16.213,4.267,25.6,4.267S259.653,189.293,267.333,186.733L267.333,186.733
		z M216.133,11.8v59.733H182V11.8c0-4.267,3.413-8.533,8.533-8.533H207.6C212.72,3.267,216.133,7.533,216.133,11.8z M301.467,11.8
		v59.733h-34.133V11.8c0-4.267,3.413-8.533,8.533-8.533h17.067C298.053,3.267,301.467,7.533,301.467,11.8z"/>
	<path style="fill:#50DD8E;" d="M275.867,412.867V370.2c0,0-1.707-40.96,25.6-68.267s68.267-25.6,68.267-25.6H412.4V319
		c0,0,1.707,40.96-25.6,68.267c-27.307,27.307-68.267,25.6-68.267,25.6H275.867z M207.6,447h-42.667c0,0-40.96,1.707-68.267-25.6
		s-25.6-68.267-25.6-68.267v-42.667h42.667c0,0,40.96-1.707,68.267,25.6s25.6,68.267,25.6,68.267V447z"/>
	<path style="fill:#E4F2DE;" d="M318.533,71.533V114.2c0,33.28-21.333,62.293-51.2,72.533c-7.68,2.56-16.213,4.267-25.6,4.267
		s-17.92-1.707-25.6-4.267c-29.867-10.24-51.2-39.253-51.2-72.533V71.533H182h34.133h51.2h34.133H318.533z"/>
</g>
<path style="fill:#51565F;" d="M499.2,503.467H362.667c-2.56,0-4.267-1.707-4.267-4.267c0-2.56,1.707-4.267,4.267-4.267H499.2
	c2.56,0,4.267,1.707,4.267,4.267C503.467,501.76,501.76,503.467,499.2,503.467z M328.533,503.467h-17.067
	c-2.56,0-4.267-1.707-4.267-4.267c0-2.56,1.707-4.267,4.267-4.267h17.067c2.56,0,4.267,1.707,4.267,4.267
	C332.8,501.76,331.093,503.467,328.533,503.467z M277.333,503.467H157.867c-2.56,0-4.267-1.707-4.267-4.267
	c0-2.56,1.707-4.267,4.267-4.267h89.6V230.4h-12.8c-6.827,0-12.8-5.973-12.8-12.8v-27.307c-29.867-11.947-51.2-40.96-51.2-75.093
	V72.533c0-2.56,1.707-4.267,4.267-4.267h12.8V12.8c0-6.827,5.973-12.8,12.8-12.8H217.6c6.827,0,12.8,5.973,12.8,12.8v55.467h42.667
	V12.8c0-6.827,5.973-12.8,12.8-12.8h17.067c6.827,0,12.8,5.973,12.8,12.8v55.467h12.8c2.56,0,4.267,1.707,4.267,4.267V115.2
	c0,34.133-21.333,63.147-51.2,75.093V217.6c0,6.827-5.973,12.8-12.8,12.8H256v264.533h21.333c2.56,0,4.267,1.707,4.267,4.267
	C281.6,501.76,279.893,503.467,277.333,503.467z M251.733,221.867H268.8c2.56,0,4.267-1.707,4.267-4.267v-23.893
	c-13.653,3.413-29.013,3.413-42.667,0V217.6c0,2.56,1.707,4.267,4.267,4.267H251.733z M179.2,76.8v38.4
	c0,40.107,32.427,72.533,72.533,72.533s72.533-32.427,72.533-72.533V76.8H179.2z M281.6,68.267h25.6V12.8
	c0-2.56-1.707-4.267-4.267-4.267h-17.067c-2.56,0-4.267,1.707-4.267,4.267V68.267z M196.267,68.267h25.6V12.8
	c0-2.56-1.707-4.267-4.267-4.267h-17.067c-2.56,0-4.267,1.707-4.267,4.267V68.267z M123.733,503.467H4.267
	C1.707,503.467,0,501.76,0,499.2c0-2.56,1.707-4.267,4.267-4.267h119.467c2.56,0,4.267,1.707,4.267,4.267
	C128,501.76,126.293,503.467,123.733,503.467z M173.227,452.267c-8.533,0-44.373-1.707-69.12-27.307
	c-28.16-28.16-27.307-69.973-26.453-71.68v-42.667c0-2.56,1.707-4.267,4.267-4.267h42.667c1.707,0,42.667-1.707,70.827,26.453
	c28.16,28.16,27.307,69.973,27.307,71.68v41.813l0,0c0,0.853,0,2.56-0.853,3.413l0,0c-0.853,0.853-1.707,0.853-3.413,0.853h-42.667
	C174.933,452.267,174.08,452.267,173.227,452.267z M85.333,315.733v38.4c0,0.853-0.853,39.253,24.747,64.853
	c25.6,25.6,64.853,24.747,64.853,24.747h32.427l-95.573-94.72c-0.853-0.853-0.853-1.707-0.853-3.413s0-2.56,0.853-3.413
	c1.707-1.707,4.267-1.707,5.973,0l94.72,94.72v-31.573c0-0.853,0.853-39.253-24.747-64.853c-25.6-25.6-64.853-24.747-64.853-24.747
	H85.333z M330.24,418.133c-0.853,0-1.707,0-1.707,0h-42.667c-0.853,0-2.56,0-3.413-0.853c-0.853-0.853-0.853-1.707-0.853-3.413l0,0
	V371.2c0-1.707-1.707-42.667,26.453-71.68c28.16-28.16,69.973-26.453,71.68-26.453H422.4c2.56,0,4.267,1.707,4.267,4.267V320
	c0,1.707,1.707,42.667-26.453,71.68C374.613,416.427,338.773,418.133,330.24,418.133z M296.107,409.6h32.427c0,0-0.853,0,0.853,0
	c6.827,0,40.96-0.853,64-24.747c25.6-25.6,24.747-64.853,24.747-64.853v-38.4h-38.4c-0.853,0-39.253-0.853-64.853,24.747
	c-25.6,25.6-24.747,64.853-24.747,64.853v32.427l94.72-94.72c1.707-1.707,4.267-1.707,5.973,0c0.853,0.853,0.853,1.707,0.853,3.413
	c0,1.707,0,2.56-0.853,3.413L296.107,409.6z"/>
<g>
</g>
<g>
</g>
<g>
</g>
<g>
</g>
<g>
</g>
<g>
</g>
<g>
</g>
<g>
</g>
<g>
</g>
<g>
</g>
<g>
</g>
<g>
</g>
<g>
</g>
<g>
</g>
<g>
</g>
</svg>
