<?xml version="1.0" encoding="iso-8859-1"?>
<!-- Generator: Adobe Illustrator 19.0.0, SVG Export Plug-In . SVG Version: 6.00 Build 0)  -->
<svg version="1.1" id="Layer_1" xmlns="http://www.w3.org/2000/svg" xmlns:xlink="http://www.w3.org/1999/xlink" x="0px" y="0px"
	 viewBox="0 0 504.4 504.4" style="enable-background:new 0 0 504.4 504.4;" xml:space="preserve">
<g transform="translate(1 1)">
	<path style="fill:#ECF4F7;" d="M208.333,465v-85.3h85.3V465h34.1c17.1,0,34.1,17.1,34.1,34.1h-221.8c0-17.1,17.1-34.1,34.1-34.1
		H208.333z M280.833,294.3h183.5h34.1v51.2c0,19.6-15.4,34.1-34.1,34.1h-170.7h-85.3h-170.7c-18.8,0-34.1-14.5-34.1-34.1v-51.2
		H280.833z"/>
	<g>
		<path style="fill:#7EE1E6;" d="M251.933,328.4c5.1,0,8.5,4.3,8.5,8.5s-3.4,8.5-8.5,8.5c-5.1,0-8.5-4.3-8.5-8.5
			S246.833,328.4,251.933,328.4"/>
		<path style="fill:#7EE1E6;" d="M498.433,37.3v256l-494.9,0.8v-256c0.8-17.9,15.3-34.1,34.1-34.1h426.7
			C483.033,3.2,498.433,18.5,498.433,37.3"/>
	</g>
	<path style="fill:#FFD0A1;" d="M463.333,294.3h-177.5l-90.3-139.1c-6-11.1-5.3-23,5-29.9c11.1-6,20.5-0.9,28.2,10.2l65.7,91.3
		c-6-11.1-2.6-24.7,8.5-30.7s24.7-2.6,30.7,8.5l6,9.4c-6-11.1-2.6-24.7,8.5-30.7s24.7-2.6,30.7,8.5l8.5,14.5c-4.3-7.7-1.7-18.8,6-23
		c7.7-4.3,18.8-0.9,23,6C414.633,190.2,446.233,234.6,463.333,294.3"/>
</g>
<path style="fill:#51565F;" d="M363.933,504.4h-221.9c-2.6,0-4.3-1.7-4.3-4.3c0-19.6,18.8-38.4,38.4-38.4h29.9v-46.9
	c0-2.6,1.7-4.3,4.3-4.3s4.3,1.7,4.3,4.3v46.9h46.9c2.6,0,4.3,1.7,4.3,4.3s-1.7,4.3-4.3,4.3h-85.4c-13.7,0-27.3,11.9-29.9,25.6h212.5
	c-2.6-13.7-16.2-25.6-29.9-25.6h-34.1c-2.6,0-4.3-1.7-4.3-4.3v-51.2c0-2.6,1.7-4.3,4.3-4.3s4.3,1.7,4.3,4.3v46.9h29.9
	c19.6,0,38.4,18.8,38.4,38.4C368.133,502.7,366.433,504.4,363.933,504.4z M201.433,155.3l65.6,101.6c0.9,1.7,1,4.2-1.5,6
	c-1.7,0.9-4.2,1-6-1.5l-66.2-102.7c-3.4-6-5.1-12.8-4.3-19.6c0.9-6.8,5.1-12.8,11.1-16.2c6.8-4.3,19.6-7.7,33.3,11.1l55.5,77.7
	c0-0.9,0-0.9,0-1.7c1.7-6.8,6-12.8,12.8-16.2c6-3.4,13.7-4.3,20.5-2.6c4.3,0.9,8.5,3.4,11.9,6.8l0,0c1.7-6.8,6-12.8,12.8-16.2
	c12.8-7.7,29-3.4,36.7,9.4l0,0c1.7-4.3,5.1-7.7,8.5-10.2c9.4-5.1,23-1.7,29,7.7c0,0,31.6,45.2,48.6,105c0,1.7,0,2.6-0.9,3.4
	s-1.7,1.7-3.4,1.7H8.933v46.9c0,16.5,13.4,29.9,29.9,29.9h426.7c16.5,0,29.9-13.4,29.9-29.9V38.4c0-16.4-13.4-29.9-29.9-29.9h-426.7
	c-15.4,0-29,13.7-29.9,29.9v221.8c0,2.4-1.9,4.4-4.3,4.4c-2.5,0-4.2-1.7-4.2-4.3V38.4c1.7-21.3,17.9-38.4,38.4-38.4h426.7
	c21.2,0,38.4,17.2,38.4,38.4v307.2c0.9,22.2-16.2,39.3-37.5,39.3h-426.8c-21.2,0-38.4-17.2-38.4-38.4v-51.2c0-2.4,1.9-4.3,4.3-4.3
	h454.8c-17.1-55.5-46.1-97.3-46.1-97.3c-3.4-6-11.9-8.5-17.1-5.1c-2.6,1.7-5.1,4.3-6,7.7s-0.9,6.8,0.9,9.4l0,0
	c0.9,1.7,0.9,4.3-1.7,6c-1.7,0.9-4.3,0.9-6-1.7l0,0l-8.5-14.5c-5.1-8.5-16.2-11.9-24.7-6.8c-4.3,2.6-6.8,6-8.5,11.1
	c-0.9,4.3-0.9,9.4,1.7,13.7l0,0c0.9,1.7,0.9,4.3-1.7,6c-1.7,0.9-4.3,0.9-6-1.7l0,0l-6-9.4c-2.6-4.3-6-6.8-11.1-8.5
	c-4.3-0.9-9.4-0.9-13.7,1.7c-4.3,2.6-6.8,6-8.5,11.1c-0.9,5.1-0.9,9.4,1.7,13.7c0.9,1.7,0.9,4.3-1.7,6c-1.7,0.9-4.3,0.9-6-0.9
	l-65.7-91.3c-11.1-15.4-18.7-10.6-23.4-7.7C192.133,138.7,201.433,155.3,201.433,155.3z M252.933,350.8c-6.8,0-12.8-6-12.8-12.8
	s6-12.8,12.8-12.8s12.8,6,12.8,12.8C265.733,344.8,259.833,350.8,252.933,350.8z M252.933,333.7c-2.6,0-4.3,1.7-4.3,4.3
	c0,2.6,1.7,4.3,4.3,4.3s4.3-1.7,4.3-4.3C257.233,335.4,255.533,333.7,252.933,333.7z M149.733,206.5c-0.9,0-2.6,0-3.4-0.9
	c-0.9-0.9-0.9-1.7-0.9-3.4s0-2.6,0.9-3.4l23.9-23.9c1.7-1.7,4.3-1.7,6,0c0.9,0.9,0.9,1.7,0.9,3.4s0,2.6-0.9,3.4l-23.9,23.9
	C152.233,205.7,151.433,206.5,149.733,206.5z M159.133,146h-34.1c-2.6,0-4.3-1.7-4.3-4.3s1.7-4.3,4.3-4.3h34.1
	c2.6,0,4.3,1.7,4.3,4.3C163.333,144.3,161.633,146,159.133,146z M246.133,110.1c-0.9,0-2.6,0-3.4-0.9s-0.9-1.7-0.9-3.4
	c0-1.7,0-2.6,0.9-3.4l23.9-23.9c1.7-1.7,4.3-1.7,6,0c0.9,0.9,0.9,1.7,0.9,3.4s0,2.6-0.9,3.4l-23.9,23.9
	C248.733,109.3,247.833,110.1,246.133,110.1z M174.433,110.1c-0.9,0-2.6,0-3.4-0.9l-23.9-23.8c-0.9-0.9-0.9-1.7-0.9-3.4
	s0-2.6,0.9-3.4c1.7-1.7,4.3-1.7,6,0l23.9,23.9c0.9,0.9,0.9,1.7,0.9,3.4c0,1.7,0,2.6-0.9,3.4S175.333,110.1,174.433,110.1z
	 M210.333,94.8c-2.6,0-4.3-1.7-4.3-4.3V56.4c0-2.6,1.7-4.3,4.3-4.3s4.3,1.7,4.3,4.3v34.1C214.533,93.1,212.833,94.8,210.333,94.8z"
	/>
<g>
</g>
<g>
</g>
<g>
</g>
<g>
</g>
<g>
</g>
<g>
</g>
<g>
</g>
<g>
</g>
<g>
</g>
<g>
</g>
<g>
</g>
<g>
</g>
<g>
</g>
<g>
</g>
<g>
</g>
</svg>
