<?xml version="1.0" encoding="utf-8"?>
<!-- Generator: Adobe Illustrator 16.0.4, SVG Export Plug-In . SVG Version: 6.00 Build 0)  -->
<!DOCTYPE svg PUBLIC "-//W3C//DTD SVG 1.1//EN" "http://www.w3.org/Graphics/SVG/1.1/DTD/svg11.dtd">
<svg version="1.1" id="Layer_1" xmlns="http://www.w3.org/2000/svg" xmlns:xlink="http://www.w3.org/1999/xlink" x="0px" y="0px"
	 width="63.596px" height="63.425px" viewBox="0 0 63.596 63.425" enable-background="new 0 0 63.596 63.425" xml:space="preserve">
<path fill="#543139" fill-opacity="0.9412" d="M57.585,29.421c-0.52-5.537,6.43-0.361,5.004-5.732
	c-1.432-5.379-4.9,2.561-7.197-2.509c-2.293-5.063,5.971-2.442,2.873-7.062c-3.092-4.616-3.807,4.025-7.631-0.023
	c-3.811-4.046,4.871-4.238,0.438-7.605c-4.428-3.363-2.303,5.041-7.225,2.453c-4.928-2.592,3.225-5.598-2.068-7.344
	c-5.277-1.746-0.533,5.511-6.027,4.659c-5.5-0.854,1.217-6.326-4.348-6.257c-5.564,0.061,1.293,5.379-4.186,6.354
	c-5.475,0.98-0.895-6.373-6.137-4.511c-5.242,1.869,2.955,4.676-1.902,7.373c-4.867,2.704-2.922-5.739-7.277-2.272
	c-4.348,3.469,4.322,3.452,0.604,7.584c-3.721,4.137-4.633-4.477-7.615,0.216c-2.992,4.687,5.203,1.859,3.025,6.982
	c-2.176,5.116-5.836-2.733-7.137,2.675c-1.303,5.404,5.537,0.076,5.146,5.619c-0.395,5.547-6.416-0.695-5.893,4.838
	c0.523,5.531,5.266-1.727,6.693,3.648s-6.295,1.429-3.996,6.496c2.289,5.062,4.42-3.341,7.516,1.275
	c3.096,4.619-5.488,3.387-1.67,7.433c3.816,4.05,3.088-4.59,7.516-1.226c4.428,3.363-4.086,4.98,0.834,7.571
	c4.926,2.595,1.432-5.339,6.715-3.595c5.285,1.746-2.24,6.03,3.26,6.885c5.492,0.85-0.391-5.52,5.17-5.583
	c5.566-0.066-0.158,6.448,5.316,5.468c5.477-0.975-2.148-5.106,3.094-6.973c5.242-1.865,1.932,6.15,6.793,3.443
	c4.861-2.704-3.691-4.115,0.656-7.586c4.355-3.465,3.832,5.187,7.553,1.051c3.721-4.139-4.838-2.697-1.85-7.383
	c2.99-4.691,5.309,3.652,7.486-1.461c2.174-5.12-5.447-0.988-4.146-6.396c1.307-5.404,6.211,1.74,6.605-3.804
	C63.974,28.576,58.108,34.958,57.585,29.421z M49.186,19.025l-12.812,7.396c-0.666-0.577-1.438-1.034-2.289-1.325v-14.56
	C40.254,11.125,45.648,14.333,49.186,19.025z M31.798,35.296c-1.979,0-3.582-1.609-3.582-3.585c0-1.981,1.604-3.585,3.582-3.585
	v-0.004c1.979,0,3.586,1.607,3.586,3.589C35.384,33.687,33.776,35.296,31.798,35.296z M29.501,10.594v14.509
	c-0.842,0.299-1.617,0.736-2.275,1.312l-12.487-7.204C18.179,14.538,23.449,11.306,29.501,10.594z M24.919,33.026l-12.66,7.318
	c-1.103-2.587-1.715-5.431-1.715-8.418c0-3.122,0.681-6.08,1.879-8.758l12.496,7.223c-0.084,0.424-0.117,0.869-0.117,1.319
	S24.835,32.603,24.919,33.026z M14.512,44.34l12.714-7.331c0.658,0.567,1.434,1.012,2.275,1.307v14.946
	C23.317,52.534,17.945,49.179,14.512,44.34z M34.085,53.318V38.329c0.852-0.299,1.623-0.76,2.289-1.336l13.038,7.533
	C45.883,49.385,40.387,52.719,34.085,53.318z M51.705,40.555l-13.028-7.528c0.086-0.424,0.119-0.865,0.119-1.315
	s-0.033-0.896-0.119-1.319l12.864-7.433c1.26,2.732,1.981,5.764,1.981,8.968C53.522,34.997,52.867,37.912,51.705,40.555z"/>
</svg>
