<?xml version="1.0" encoding="iso-8859-1"?>
<!-- Generator: Adobe Illustrator 19.0.0, SVG Export Plug-In . SVG Version: 6.00 Build 0)  -->
<svg version="1.1" id="Capa_1" xmlns="http://www.w3.org/2000/svg" xmlns:xlink="http://www.w3.org/1999/xlink" x="0px" y="0px"
	 viewBox="0 0 512 512" style="enable-background:new 0 0 512 512;" xml:space="preserve">
<path style="fill:#E6E9ED;" d="M443.732,303.558c0-0.553-0.447-1-1-1h-6.563c-2.289,0-4.151-1.863-4.151-4.154v-18.246
	c0-2.292,1.862-4.156,4.151-4.156h10.418V65.463c0-2.836-2.318-5.154-5.151-5.154H294.157c-2.833,0-5.151,2.318-5.151,5.154v172.748
	c10.299,0.722,18.462,9.29,18.462,19.746v150.766h133.968c0.828,0,1.602-0.217,2.297-0.568V303.558H443.732z"/>
<path style="fill:#48C1E1;" d="M443.732,379.095v-75.537c0-0.553-0.447-1-1-1h-6.563c-2.289,0-4.151-1.863-4.151-4.154v-18.246
	c0-2.292,1.862-4.156,4.151-4.156h10.418v-97.238H289.006v59.447c10.299,0.722,18.462,9.29,18.462,19.746v121.139h136.264V379.095z"
	/>
<rect x="307.47" y="371.599" style="fill:#A2DFF9;" width="136.26" height="15"/>
<path style="opacity:0.1;enable-background:new    ;" d="M321.932,403.568V65.463c0-2.836,2.318-5.154,5.15-5.154h-32.925
	c-2.833,0-5.151,2.318-5.151,5.154v172.748c10.299,0.722,18.462,9.29,18.462,19.746v150.766h19.614
	C324.25,408.722,321.932,406.404,321.932,403.568z"/>
<path style="fill:#F7931E;" d="M415.643,313.869c0,17.086-13.88,30.938-31.001,30.938c-17.124,0-30.999-13.852-30.999-30.938
	s13.875-30.938,30.999-30.938C401.763,282.931,415.643,296.783,415.643,313.869z"/>
<path style="fill:#FFFFFF;" d="M352.04,278.479c-1.98,0-3.91-0.8-5.311-2.19c-1.39-1.4-2.189-3.33-2.189-5.31
	c0-1.97,0.8-3.899,2.189-5.3c1.4-1.399,3.33-2.2,5.311-2.2c1.97,0,3.9,0.801,5.3,2.2c1.4,1.4,2.2,3.33,2.2,5.3
	c0,1.98-0.8,3.91-2.2,5.31C355.94,277.679,354.01,278.479,352.04,278.479z"/>
<g>
	<path style="fill:#A2DFF9;" d="M327.84,256.63c-1.98,0-3.91-0.8-5.3-2.19c-1.4-1.399-2.2-3.33-2.2-5.31c0-1.97,0.8-3.9,2.2-5.3
		c1.39-1.4,3.319-2.2,5.3-2.2c1.97,0,3.91,0.8,5.3,2.2c1.4,1.399,2.2,3.33,2.2,5.3c0,1.98-0.8,3.91-2.2,5.31
		C331.75,255.83,329.81,256.63,327.84,256.63z"/>
	<path style="fill:#A2DFF9;" d="M387.76,265.83c-1.97,0-3.9-0.8-5.3-2.19c-1.4-1.399-2.2-3.33-2.2-5.31c0-1.971,0.8-3.9,2.2-5.3
		c1.399-1.4,3.33-2.2,5.3-2.2c1.98,0,3.91,0.8,5.3,2.2c1.4,1.399,2.2,3.329,2.2,5.3c0,1.979-0.8,3.91-2.2,5.31
		C391.67,265.03,389.74,265.83,387.76,265.83z"/>
</g>
<g>
	<path style="fill:#FFFFFF;" d="M357.8,249.729c-1.97,0-3.91-0.8-5.3-2.199c-1.4-1.391-2.2-3.32-2.2-5.301c0-1.97,0.8-3.91,2.2-5.3
		c1.39-1.399,3.319-2.2,5.3-2.2c1.97,0,3.91,0.801,5.3,2.2c1.4,1.39,2.2,3.33,2.2,5.3c0,1.98-0.8,3.91-2.2,5.301
		C361.71,248.929,359.77,249.729,357.8,249.729z"/>
	<path style="fill:#FFFFFF;" d="M327.84,222.139c-1.97,0-3.91-0.809-5.3-2.2c-1.4-1.399-2.2-3.33-2.2-5.3c0-1.98,0.8-3.91,2.2-5.309
		c1.39-1.391,3.33-2.191,5.3-2.191s3.91,0.8,5.3,2.191c1.4,1.399,2.2,3.33,2.2,5.309c0,1.97-0.8,3.9-2.2,5.3
		C331.74,221.33,329.81,222.139,327.84,222.139z"/>
</g>
<rect x="126.5" y="204.999" style="fill:#775436;" width="119.17" height="34"/>
<rect x="126.5" y="204.999" style="opacity:0.1;enable-background:new    ;" width="31.957" height="34"/>
<path style="fill:#368C0E;" d="M109.847,201.363c0,2.836,2.318,5.154,5.151,5.154h142.191c2.833,0,5.15-2.318,5.15-5.154v-35.395
	c0-2.836-2.317-5.156-5.15-5.156H114.998c-2.833,0-5.151,2.32-5.151,5.156V201.363z"/>
<path style="opacity:0.1;enable-background:new    ;" d="M142.655,201.363v-35.395c0-2.836,2.317-5.156,5.15-5.156h-32.808
	c-2.833,0-5.151,2.32-5.151,5.156v35.395c0,2.836,2.318,5.154,5.151,5.154h32.808C144.973,206.517,142.655,204.199,142.655,201.363z
	"/>
<path style="fill:#C6A07D;" d="M287.607,237.14H84.572c-11.471,0-20.859,9.367-20.859,20.816v56.309h67.13
	c2.289,0,4.151,1.864,4.151,4.156v33.068c0,0.553,0.447,1,1,1h16.104c5.129,0,9.302,4.177,9.302,9.311v111.26h126.208
	c11.474,0,20.86-9.367,20.86-20.816V257.957C308.468,246.508,299.081,237.14,287.607,237.14z"/>
<path style="opacity:0.1;enable-background:new    ;" d="M95.721,314.265v-56.309c0-11.449,9.388-20.816,20.858-20.816H84.572
	c-11.471,0-20.859,9.367-20.859,20.816v56.309H95.721z"/>
<path style="fill:#775436;" d="M161.399,445.304v27.756h126.208c11.474,0,20.86-9.367,20.86-20.816v-6.939H161.399V445.304z"/>
<path style="fill:#FFFFFF;" d="M204.727,282.935h103.74v116.572h-103.74c-2.297,0-4.174-1.873-4.174-4.162V287.099
	C200.554,284.808,202.431,282.935,204.727,282.935z"/>
<path style="opacity:0.1;enable-background:new    ;" d="M222.004,395.345V287.099c0-2.291,1.877-4.164,4.174-4.164h-21.45
	c-2.297,0-4.174,1.873-4.174,4.164v108.246c0,2.289,1.877,4.162,4.174,4.162h21.45C223.881,399.508,222.004,397.634,222.004,395.345
	z"/>
<g>
	<path style="fill:#368C0E;" d="M272.867,334.843h-33.373c-4.143,0-7.5-3.357-7.5-7.5s3.357-7.5,7.5-7.5h33.373
		c4.143,0,7.5,3.357,7.5,7.5S277.01,334.843,272.867,334.843z"/>
	<path style="fill:#368C0E;" d="M272.867,363.986h-33.373c-4.143,0-7.5-3.357-7.5-7.5s3.357-7.5,7.5-7.5h33.373
		c4.143,0,7.5,3.357,7.5,7.5S277.01,363.986,272.867,363.986z"/>
</g>
<path style="fill:#F7931E;" d="M135.994,352.999v-34.577c0-2.836-2.318-5.156-5.151-5.156H31.557c-2.833,0-5.151,2.32-5.151,5.156
	v34.577H135.994z"/>
<path style="opacity:0.1;enable-background:new    ;" d="M58.846,352.999v-34.577c0-2.836,2.318-5.156,5.151-5.156h-32.44
	c-2.833,0-5.151,2.32-5.151,5.156v34.577H58.846z"/>
<g>
	<path style="fill:#046699;" d="M0,492.023c0,5.672,4.636,10.311,10.302,10.311h141.796c5.666,0,10.302-4.639,10.302-10.311v-31.654
		H0V492.023z"/>
	<path style="fill:#046699;" d="M152.098,351.49H10.302C4.636,351.49,0,356.129,0,361.801v26.404h162.399v-26.404
		C162.399,356.129,157.764,351.49,152.098,351.49z"/>
</g>
<rect y="388.209" style="fill:#FFC502;" width="162.4" height="72.16"/>
<rect y="388.209" style="fill:#E6E9ED;" width="45.756" height="72.16"/>
<path style="opacity:0.1;enable-background:new    ;" d="M24,492.023V361.801c0-5.672,4.636-10.311,10.302-10.311h-24
	C4.636,351.49,0,356.129,0,361.801v130.223c0,5.672,4.636,10.311,10.302,10.311h24C28.636,502.334,24,497.695,24,492.023z"/>
<path style="fill:#F7931E;" d="M442.732,302.555v194.624c0,2.834,2.318,5.154,5.15,5.154h47.251c2.833,0,5.151-2.32,5.151-5.154
	V302.555H442.732z"/>
<polygon style="fill:#FFC502;" points="442.732,457.498 500.285,400.064 500.285,347.078 442.732,404.509 "/>
<path style="opacity:0.1;enable-background:new    ;" d="M464.234,497.179V302.555h-21.502v194.624c0,2.834,2.318,5.154,5.15,5.154
	h21.502C466.553,502.334,464.234,500.013,464.234,497.179z"/>
<path style="fill:#C5CCD3;" d="M512,298.404c0,2.836-2.318,5.154-5.15,5.154h-70.681c-2.833,0-5.151-2.318-5.151-5.154v-18.246
	c0-2.836,2.318-5.156,5.151-5.156h70.681c2.832,0,5.15,2.32,5.15,5.156V298.404z"/>
<path style="opacity:0.1;enable-background:new    ;" d="M452.137,298.404v-18.246c0-2.836,2.318-5.156,5.151-5.156h-21.119
	c-2.833,0-5.151,2.32-5.151,5.156v18.246c0,2.836,2.318,5.154,5.151,5.154h21.119C454.455,303.558,452.137,301.24,452.137,298.404z"
	/>
<g>
	<path style="fill:#FCDB67;" d="M253.759,118c0,8.467-6.859,15.332-15.321,15.332H209.84c-8.462,0-15.32-6.865-15.32-15.332l0,0
		c0-8.467,6.858-15.33,15.32-15.33h28.598C246.899,102.67,253.759,109.533,253.759,118L253.759,118z"/>
	<path style="fill:#FCDB67;" d="M196.058,54.117c5.981,5.986,5.981,15.693,0,21.68l-20.223,20.236
		c-5.983,5.986-15.683,5.986-21.666,0l0,0c-5.983-5.986-5.983-15.693,0-21.68l20.223-20.236
		C180.373,48.131,190.074,48.131,196.058,54.117L196.058,54.117z"/>
	<path style="fill:#FCDB67;" d="M256.217,56.07c-5.984,5.986-15.685,5.986-21.666,0l-20.224-20.236
		c-5.982-5.984-5.982-15.691,0.001-21.68l0,0c5.982-5.986,15.683-5.986,21.667,0l20.222,20.236
		C262.199,40.375,262.199,50.084,256.217,56.07L256.217,56.07z"/>
</g>
<g>
</g>
<g>
</g>
<g>
</g>
<g>
</g>
<g>
</g>
<g>
</g>
<g>
</g>
<g>
</g>
<g>
</g>
<g>
</g>
<g>
</g>
<g>
</g>
<g>
</g>
<g>
</g>
<g>
</g>
</svg>
