<?xml version="1.0" standalone="no"?><!-- Generator: Gravit.io --><svg xmlns="http://www.w3.org/2000/svg" xmlns:xlink="http://www.w3.org/1999/xlink" style="isolation:isolate" viewBox="490 40 1660 1060" width="1660" height="1060"><defs><clipPath id="_clipPath_NJnKybA2efuzFYTxFTvyIEVvL2Tm57r8"><rect x="490" y="40" width="1660" height="1060"/></clipPath></defs><g clip-path="url(#_clipPath_NJnKybA2efuzFYTxFTvyIEVvL2Tm57r8)"><defs><filter id="9RF3t0A42fAQz6UC6lMr0ctZuj3iVUy9" x="-200%" y="-200%" width="400%" height="400%" filterUnits="objectBoundingBox" color-interpolation-filters="sRGB"><feGaussianBlur xmlns="http://www.w3.org/2000/svg" in="SourceGraphic" stdDeviation="42.93609062839028"/><feOffset xmlns="http://www.w3.org/2000/svg" dx="20" dy="20" result="pf_100_offsetBlur"/><feFlood xmlns="http://www.w3.org/2000/svg" flood-color="#D2D2D2" flood-opacity="0.65"/><feComposite xmlns="http://www.w3.org/2000/svg" in2="pf_100_offsetBlur" operator="in" result="pf_100_dropShadow"/><feBlend xmlns="http://www.w3.org/2000/svg" in="SourceGraphic" in2="pf_100_dropShadow" mode="normal"/></filter></defs><g filter="url(#9RF3t0A42fAQz6UC6lMr0ctZuj3iVUy9)"><path d="M 616 150 L 1984 150 C 1992.831 150 2000 157.169 2000 166 L 2000 934 C 2000 942.831 1992.831 950 1984 950 L 616 950 C 607.169 950 600 942.831 600 934 L 600 166 C 600 157.169 607.169 150 616 150 Z" style="stroke:none;fill:#FFFFFF;stroke-miterlimit:10;"/></g><g><circle vector-effect="non-scaling-stroke" cx="1917.5" cy="176.5" r="7.5" fill="rgb(255,79,115)"/><circle vector-effect="non-scaling-stroke" cx="1945.5" cy="176.5" r="7.5" fill="rgb(255,202,80)"/><circle vector-effect="non-scaling-stroke" cx="1973.4999999999998" cy="176.5" r="7.5" fill="rgb(124,232,220)"/></g><path d="M 621.518 170.618 L 676.718 170.618 C 678.042 170.618 679.118 171.693 679.118 173.018 L 679.118 228.218 C 679.118 229.542 678.042 230.618 676.718 230.618 L 621.518 230.618 C 620.193 230.618 619.118 229.542 619.118 228.218 L 619.118 173.018 C 619.118 171.693 620.193 170.618 621.518 170.618 Z" style="stroke:none;fill:#F9FAFC;stroke-miterlimit:10;"/><g><path d="M 623.218 284 L 679.018 284 C 680.177 284 681.118 284.941 681.118 286.1 L 681.118 341.9 C 681.118 343.059 680.177 344 679.018 344 L 623.218 344 C 622.059 344 621.118 343.059 621.118 341.9 L 621.118 286.1 C 621.118 284.941 622.059 284 623.218 284 Z" style="stroke:none;fill:#F9FAFC;stroke-miterlimit:10;"/><path d="M 625.1 363 L 680.9 363 C 682.059 363 683 363.941 683 365.1 L 683 420.9 C 683 422.059 682.059 423 680.9 423 L 625.1 423 C 623.941 423 623 422.059 623 420.9 L 623 365.1 C 623 363.941 623.941 363 625.1 363 Z" style="stroke:none;fill:#F9FAFC;stroke-miterlimit:10;"/><path d="M 623.218 444 L 679.018 444 C 680.177 444 681.118 444.941 681.118 446.1 L 681.118 501.9 C 681.118 503.059 680.177 504 679.018 504 L 623.218 504 C 622.059 504 621.118 503.059 621.118 501.9 L 621.118 446.1 C 621.118 444.941 622.059 444 623.218 444 Z" style="stroke:none;fill:#F9FAFC;stroke-miterlimit:10;"/><path d="M 623.218 524 L 679.018 524 C 680.177 524 681.118 524.941 681.118 526.1 L 681.118 581.9 C 681.118 583.059 680.177 584 679.018 584 L 623.218 584 C 622.059 584 621.118 583.059 621.118 581.9 L 621.118 526.1 C 621.118 524.941 622.059 524 623.218 524 Z" style="stroke:none;fill:#F9FAFC;stroke-miterlimit:10;"/><path d="M 623.218 604 L 679.018 604 C 680.177 604 681.118 604.941 681.118 606.1 L 681.118 661.9 C 681.118 663.059 680.177 664 679.018 664 L 623.218 664 C 622.059 664 621.118 663.059 621.118 661.9 L 621.118 606.1 C 621.118 604.941 622.059 604 623.218 604 Z" style="stroke:none;fill:#F9FAFC;stroke-miterlimit:10;"/><path d="M 623.218 684 L 679.018 684 C 680.177 684 681.118 684.941 681.118 686.1 L 681.118 741.9 C 681.118 743.059 680.177 744 679.018 744 L 623.218 744 C 622.059 744 621.118 743.059 621.118 741.9 L 621.118 686.1 C 621.118 684.941 622.059 684 623.218 684 Z" style="stroke:none;fill:#F9FAFC;stroke-miterlimit:10;"/><path d="M 623.218 764 L 679.018 764 C 680.177 764 681.118 764.941 681.118 766.1 L 681.118 821.9 C 681.118 823.059 680.177 824 679.018 824 L 623.218 824 C 622.059 824 621.118 823.059 621.118 821.9 L 621.118 766.1 C 621.118 764.941 622.059 764 623.218 764 Z" style="stroke:none;fill:#F9FAFC;stroke-miterlimit:10;"/><path d="M 623.218 841 L 679.018 841 C 680.177 841 681.118 841.941 681.118 843.1 L 681.118 898.9 C 681.118 900.059 680.177 901 679.018 901 L 623.218 901 C 622.059 901 621.118 900.059 621.118 898.9 L 621.118 843.1 C 621.118 841.941 622.059 841 623.218 841 Z" style="stroke:none;fill:#F9FAFC;stroke-miterlimit:10;"/></g><g><path d="M 763 637.235 L 763 637.235 C 765.76 637.235 768 639.476 768 642.235 L 768 894 C 768 896.76 765.76 899 763 899 L 763 899 C 760.24 899 758 896.76 758 894 L 758 642.235 C 758 639.476 760.24 637.235 763 637.235 Z" style="stroke:none;fill:#F5F8FA;stroke-miterlimit:10;"/><path d="M 773 536 L 773 536 C 775.76 536 778 538.638 778 541.888 L 778 893.112 C 778 896.362 775.76 899 773 899 L 773 899 C 770.24 899 768 896.362 768 893.112 L 768 541.888 C 768 538.638 770.24 536 773 536 Z" style="stroke:none;fill:#F9FAFC;stroke-miterlimit:10;"/><path d="M 807.434 693.118 L 808.566 693.118 C 811.013 693.118 813 695.105 813 697.552 L 813 894.566 C 813 897.013 811.013 899 808.566 899 L 807.434 899 C 804.987 899 803 897.013 803 894.566 L 803 697.552 C 803 695.105 804.987 693.118 807.434 693.118 Z" style="stroke:none;fill:#F5F8FA;stroke-miterlimit:10;"/><path d="M 818 616.059 L 818 616.059 C 820.76 616.059 823 618.388 823 621.257 L 823 893.802 C 823 896.671 820.76 899 818 899 L 818 899 C 815.24 899 813 896.671 813 893.802 L 813 621.257 C 813 618.388 815.24 616.059 818 616.059 Z" style="stroke:none;fill:#F9FAFC;stroke-miterlimit:10;"/><path d="M 860 637.235 L 860 637.235 C 862.76 637.235 865 639.476 865 642.235 L 865 894 C 865 896.76 862.76 899 860 899 L 860 899 C 857.24 899 855 896.76 855 894 L 855 642.235 C 855 639.476 857.24 637.235 860 637.235 Z" style="stroke:none;fill:#F5F8FA;stroke-miterlimit:10;"/><path d="M 869.563 681 L 870.437 681 C 872.955 681 875 683.045 875 685.563 L 875 894.437 C 875 896.955 872.955 899 870.437 899 L 869.563 899 C 867.045 899 865 896.955 865 894.437 L 865 685.563 C 865 683.045 867.045 681 869.563 681 Z" style="stroke:none;fill:#F9FAFC;stroke-miterlimit:10;"/><path d="M 904.434 693.118 L 905.566 693.118 C 908.013 693.118 910 695.105 910 697.552 L 910 894.566 C 910 897.013 908.013 899 905.566 899 L 904.434 899 C 901.987 899 900 897.013 900 894.566 L 900 697.552 C 900 695.105 901.987 693.118 904.434 693.118 Z" style="stroke:none;fill:#F5F8FA;stroke-miterlimit:10;"/><path d="M 915 556 L 915 556 C 917.76 556 920 558.565 920 561.723 L 920 893.277 C 920 896.435 917.76 899 915 899 L 915 899 C 912.24 899 910 896.435 910 893.277 L 910 561.723 C 910 558.565 912.24 556 915 556 Z" style="stroke:none;fill:#F9FAFC;stroke-miterlimit:10;"/><path d="M 960 637.235 L 960 637.235 C 962.76 637.235 965 639.476 965 642.235 L 965 894 C 965 896.76 962.76 899 960 899 L 960 899 C 957.24 899 955 896.76 955 894 L 955 642.235 C 955 639.476 957.24 637.235 960 637.235 Z" style="stroke:none;fill:#F5F8FA;stroke-miterlimit:10;"/><path d="M 970 536 L 970 536 C 972.76 536 975 538.638 975 541.888 L 975 893.112 C 975 896.362 972.76 899 970 899 L 970 899 C 967.24 899 965 896.362 965 893.112 L 965 541.888 C 965 538.638 967.24 536 970 536 Z" style="stroke:none;fill:#F9FAFC;stroke-miterlimit:10;"/><path d="M 1004.434 693.118 L 1005.566 693.118 C 1008.013 693.118 1010 695.105 1010 697.552 L 1010 894.566 C 1010 897.013 1008.013 899 1005.566 899 L 1004.434 899 C 1001.987 899 1000 897.013 1000 894.566 L 1000 697.552 C 1000 695.105 1001.987 693.118 1004.434 693.118 Z" style="stroke:none;fill:#F5F8FA;stroke-miterlimit:10;"/><path d="M 1015 616.059 L 1015 616.059 C 1017.76 616.059 1020 618.388 1020 621.257 L 1020 893.802 C 1020 896.671 1017.76 899 1015 899 L 1015 899 C 1012.24 899 1010 896.671 1010 893.802 L 1010 621.257 C 1010 618.388 1012.24 616.059 1015 616.059 Z" style="stroke:none;fill:#F9FAFC;stroke-miterlimit:10;"/><path d="M 1057 637.235 L 1057 637.235 C 1059.76 637.235 1062 639.476 1062 642.235 L 1062 894 C 1062 896.76 1059.76 899 1057 899 L 1057 899 C 1054.24 899 1052 896.76 1052 894 L 1052 642.235 C 1052 639.476 1054.24 637.235 1057 637.235 Z" style="stroke:none;fill:#F5F8FA;stroke-miterlimit:10;"/><path d="M 1066.563 681 L 1067.437 681 C 1069.955 681 1072 683.045 1072 685.563 L 1072 894.437 C 1072 896.955 1069.955 899 1067.437 899 L 1066.563 899 C 1064.045 899 1062 896.955 1062 894.437 L 1062 685.563 C 1062 683.045 1064.045 681 1066.563 681 Z" style="stroke:none;fill:#F9FAFC;stroke-miterlimit:10;"/><path d="M 1101.434 693.118 L 1102.566 693.118 C 1105.013 693.118 1107 695.105 1107 697.552 L 1107 894.566 C 1107 897.013 1105.013 899 1102.566 899 L 1101.434 899 C 1098.987 899 1097 897.013 1097 894.566 L 1097 697.552 C 1097 695.105 1098.987 693.118 1101.434 693.118 Z" style="stroke:none;fill:#F5F8FA;stroke-miterlimit:10;"/><path d="M 1112 556 L 1112 556 C 1114.76 556 1117 558.565 1117 561.723 L 1117 893.277 C 1117 896.435 1114.76 899 1112 899 L 1112 899 C 1109.24 899 1107 896.435 1107 893.277 L 1107 561.723 C 1107 558.565 1109.24 556 1112 556 Z" style="stroke:none;fill:#F9FAFC;stroke-miterlimit:10;"/><path d="M 1160 637.235 L 1160 637.235 C 1162.76 637.235 1165 639.476 1165 642.235 L 1165 894 C 1165 896.76 1162.76 899 1160 899 L 1160 899 C 1157.24 899 1155 896.76 1155 894 L 1155 642.235 C 1155 639.476 1157.24 637.235 1160 637.235 Z" style="stroke:none;fill:#F5F8FA;stroke-miterlimit:10;"/><path d="M 1170 536 L 1170 536 C 1172.76 536 1175 538.638 1175 541.888 L 1175 893.112 C 1175 896.362 1172.76 899 1170 899 L 1170 899 C 1167.24 899 1165 896.362 1165 893.112 L 1165 541.888 C 1165 538.638 1167.24 536 1170 536 Z" style="stroke:none;fill:#F9FAFC;stroke-miterlimit:10;"/><path d="M 1204.434 693.118 L 1205.566 693.118 C 1208.013 693.118 1210 695.105 1210 697.552 L 1210 894.566 C 1210 897.013 1208.013 899 1205.566 899 L 1204.434 899 C 1201.987 899 1200 897.013 1200 894.566 L 1200 697.552 C 1200 695.105 1201.987 693.118 1204.434 693.118 Z" style="stroke:none;fill:#F5F8FA;stroke-miterlimit:10;"/><path d="M 1215 616.059 L 1215 616.059 C 1217.76 616.059 1220 618.388 1220 621.257 L 1220 893.802 C 1220 896.671 1217.76 899 1215 899 L 1215 899 C 1212.24 899 1210 896.671 1210 893.802 L 1210 621.257 C 1210 618.388 1212.24 616.059 1215 616.059 Z" style="stroke:none;fill:#F9FAFC;stroke-miterlimit:10;"/><path d="M 1257 637.235 L 1257 637.235 C 1259.76 637.235 1262 639.476 1262 642.235 L 1262 894 C 1262 896.76 1259.76 899 1257 899 L 1257 899 C 1254.24 899 1252 896.76 1252 894 L 1252 642.235 C 1252 639.476 1254.24 637.235 1257 637.235 Z" style="stroke:none;fill:#F5F8FA;stroke-miterlimit:10;"/><path d="M 1266.563 681 L 1267.437 681 C 1269.955 681 1272 683.045 1272 685.563 L 1272 894.437 C 1272 896.955 1269.955 899 1267.437 899 L 1266.563 899 C 1264.045 899 1262 896.955 1262 894.437 L 1262 685.563 C 1262 683.045 1264.045 681 1266.563 681 Z" style="stroke:none;fill:#F9FAFC;stroke-miterlimit:10;"/><path d="M 1301.434 693.118 L 1302.566 693.118 C 1305.013 693.118 1307 695.105 1307 697.552 L 1307 894.566 C 1307 897.013 1305.013 899 1302.566 899 L 1301.434 899 C 1298.987 899 1297 897.013 1297 894.566 L 1297 697.552 C 1297 695.105 1298.987 693.118 1301.434 693.118 Z" style="stroke:none;fill:#F5F8FA;stroke-miterlimit:10;"/><path d="M 1312 556 L 1312 556 C 1314.76 556 1317 558.565 1317 561.723 L 1317 893.277 C 1317 896.435 1314.76 899 1312 899 L 1312 899 C 1309.24 899 1307 896.435 1307 893.277 L 1307 561.723 C 1307 558.565 1309.24 556 1312 556 Z" style="stroke:none;fill:#F9FAFC;stroke-miterlimit:10;"/></g><g><defs><filter id="AkkGZUfURgmhEwZq14fg5dlV5bRtJHbq" x="-200%" y="-200%" width="400%" height="400%" filterUnits="objectBoundingBox" color-interpolation-filters="sRGB"><feGaussianBlur xmlns="http://www.w3.org/2000/svg" stdDeviation="0"/></filter></defs><g opacity="0.5" filter="url(#AkkGZUfURgmhEwZq14fg5dlV5bRtJHbq)"><path d=" M 1317 470 L 758 470 L 759 431 Q 765 433 788 440 C 811 447 825 443 842 405 C 859 367 870 338 908 326 C 946 314 959 327 1012 385 C 1065 443 1118 308 1144 284 C 1170 260 1266 167 1283 291 Q 1300 415 1317 385 L 1317 470 Z " fill="rgb(245,248,250)" vector-effect="non-scaling-stroke" stroke-width="5" stroke="rgb(250,251,252)" stroke-linejoin="miter" stroke-linecap="square" stroke-miterlimit="3"/></g><defs><filter id="uMceX9fwabKeVA1pM9a8Ob1HAkVxaQYn" x="-200%" y="-200%" width="400%" height="400%" filterUnits="objectBoundingBox" color-interpolation-filters="sRGB"><feGaussianBlur xmlns="http://www.w3.org/2000/svg" stdDeviation="0"/></filter></defs><g opacity="0.5" filter="url(#uMceX9fwabKeVA1pM9a8Ob1HAkVxaQYn)"><path d=" M 1317 435 L 1317 438 L 1317 447 L 1317 470 L 758 470 L 758 361 Q 835.5 452.5 903 431 C 970.5 409.5 1007 264.5 1054 259 C 1101 253.5 1338.156 487.415 1317 431 C 1305 399 1318 397.333 1317 435 Z " fill="rgb(249,250,252)" vector-effect="non-scaling-stroke" stroke-width="5" stroke="rgb(249,250,252)" stroke-linejoin="miter" stroke-linecap="square" stroke-miterlimit="3"/></g></g><g><path d=" M 1833.62 242.95 C 1828.703 237.872 1828.733 232.902 1833.62 227.95 C 1852.12 227.94 1870.42 231.64 1887.46 238.83 C 1903.9 245.8 1918.84 255.87 1931.45 268.5 C 1944.08 281.11 1954.15 296.05 1961.12 312.49 C 1968.31 329.52 1972.01 347.84 1972 366.33 C 1972.01 384.83 1968.31 403.14 1961.12 420.18 C 1954.15 436.61 1944.08 451.55 1931.45 464.17 C 1918.84 476.79 1903.9 486.87 1887.46 493.83 C 1870.43 501.03 1852.11 504.73 1833.62 504.71 C 1815.12 504.73 1796.81 501.03 1779.77 493.83 C 1763.34 486.87 1748.4 476.79 1735.78 464.17 C 1723.16 451.55 1713.08 436.61 1706.12 420.18 C 1698.92 403.14 1695.22 384.82 1695.24 366.33 C 1699.92 360.153 1704.93 360.167 1710.24 366.34 C 1710.22 382.82 1713.52 399.15 1719.93 414.33 C 1726.15 428.99 1735.13 442.31 1746.39 453.56 C 1757.64 464.82 1770.96 473.8 1785.62 480.02 C 1800.8 486.43 1817.13 489.73 1833.62 489.71 C 1850.11 489.73 1866.43 486.43 1881.62 480.02 C 1896.28 473.8 1909.59 464.82 1920.84 453.56 C 1932.1 442.31 1941.09 428.99 1947.3 414.33 C 1953.72 399.15 1957.01 382.82 1957 366.33 C 1957.01 349.84 1953.72 333.52 1947.3 318.33 C 1941.09 303.67 1932.1 290.36 1920.84 279.11 C 1909.59 267.85 1896.28 258.86 1881.62 252.65 C 1866.43 246.24 1850.11 242.94 1833.62 242.95 Z " fill="rgb(249,250,252)"/><path d=" M 1833.63 268.83 C 1829.446 264.452 1829.45 259.462 1833.61 253.83 C 1848.65 253.82 1863.54 256.83 1877.4 262.68 C 1890.76 268.34 1902.9 276.53 1913.15 286.8 C 1923.42 297.05 1931.61 309.19 1937.27 322.55 C 1943.12 336.41 1946.13 351.29 1946.12 366.33 C 1946.13 381.37 1943.12 396.25 1937.27 410.11 C 1931.61 423.47 1923.42 435.61 1913.15 445.86 C 1902.9 456.13 1890.76 464.32 1877.4 469.98 C 1863.54 475.83 1848.66 478.84 1833.62 478.83 C 1823.52 478.84 1813.47 477.48 1803.73 474.81 C 1794.31 472.21 1785.28 468.4 1776.85 463.46 C 1775.103 456.51 1777.643 452.207 1784.44 450.52 C 1791.73 454.79 1799.56 458.1 1807.71 460.35 C 1816.15 462.66 1824.87 463.84 1833.62 463.83 C 1846.65 463.84 1859.55 461.23 1871.55 456.17 C 1883.13 451.26 1893.66 444.16 1902.55 435.26 C 1911.45 426.37 1918.55 415.84 1923.46 404.26 C 1928.52 392.26 1931.13 379.36 1931.12 366.33 C 1931.13 353.3 1928.52 340.4 1923.46 328.4 C 1918.55 316.82 1911.45 306.29 1902.55 297.4 C 1893.66 288.5 1883.13 281.4 1871.55 276.49 C 1859.55 271.43 1846.65 268.82 1833.63 268.83 Z " fill="rgb(252,252,253)"/><path d=" M 1833.62 293.83 C 1827.686 290.323 1827.692 285.333 1833.61 278.83 C 1845.31 278.82 1856.89 281.16 1867.67 285.72 C 1878.06 290.12 1887.5 296.49 1895.48 304.47 C 1903.46 312.45 1909.83 321.89 1914.24 332.28 C 1918.79 343.06 1921.13 354.63 1921.12 366.33 C 1921.13 375.47 1919.7 384.55 1916.89 393.25 C 1914.17 401.64 1910.2 409.58 1905.1 416.78 C 1894.93 431.18 1880.66 442.18 1864.15 448.35 C 1857.033 445.167 1855.293 440.493 1858.9 434.3 C 1872.59 429.18 1884.42 420.06 1892.85 408.12 C 1897.07 402.16 1900.37 395.59 1902.62 388.63 C 1904.94 381.43 1906.13 373.9 1906.12 366.33 C 1906.13 356.64 1904.19 347.05 1900.42 338.13 C 1896.77 329.52 1891.49 321.69 1884.87 315.08 C 1878.26 308.46 1870.44 303.18 1861.82 299.53 C 1852.9 295.76 1843.31 293.82 1833.62 293.83 Z " fill="rgb(249,250,252)"/></g><g><path d=" M 1587.904 869.24 C 1568.036 885.934 1542.378 896 1514.378 896 C 1451.375 896 1400.219 845.047 1400.231 782.279 L 1514.378 782.279 L 1587.904 869.24 Z " fill="rgb(249,250,252)"/><path d=" M 1521.355 660.738 C 1584.357 660.728 1635.502 711.692 1635.502 774.459 C 1635.502 809.328 1619.716 840.553 1594.881 861.42 L 1521.355 774.459 L 1521.355 660.738 Z " fill="rgb(249,250,252)"/><path d=" M 1396.742 772.721 C 1396.742 709.957 1447.89 659 1510.889 659 L 1510.889 772.721 L 1396.742 772.721 Z " fill="rgb(245,248,250)"/></g><g><rect x="1385.24" y="227.95" width="261.765" height="109.07" transform="matrix(1,0,0,1,0,0)" fill="rgb(249,250,252)"/><rect x="1385.24" y="362.95" width="261.765" height="109.07" transform="matrix(1,0,0,1,0,0)" fill="rgb(249,250,252)"/><rect x="1385.24" y="498.95" width="261.765" height="109.07" transform="matrix(1,0,0,1,0,0)" fill="rgb(249,250,252)"/></g><rect x="1710.235" y="533" width="261.765" height="372" transform="matrix(1,0,0,1,0,0)" fill="rgb(249,250,252)"/></g></svg>